<svg width="32" height="32" viewBox="0 0 24 24" fill="none" xmlns="http://www.w3.org/2000/svg">
  <path d="M23 19C23 20.1 22.1 21 21 21H3C1.9 21 1 20.1 1 19V8C1 6.9 1.9 6 3 6H7L9 3H15L17 6H21C22.1 6 23 6.9 23 8V19Z" fill="#FF6B6B"/>
  <path d="M12 17C14.7614 17 17 14.7614 17 12C17 9.23858 14.7614 7 12 7C9.23858 7 7 9.23858 7 12C7 14.7614 9.23858 17 12 17Z" fill="white"/>
  <path d="M12 15C13.6569 15 15 13.6569 15 12C15 10.3431 13.6569 9 12 9C10.3431 9 9 10.3431 9 12C9 13.6569 10.3431 15 12 15Z" fill="#FF6B6B"/>
</svg>
